# Blender v2.76 (sub 0) OBJ File: ''
# www.blender.org
mtllib holeaprile2draw.mtl
o 2
v 2.000000 0.000000 -0.055000
v 0.000000 0.000000 -0.055000
v 0.000000 -0.006446 -0.054614
v 2.000000 0.006446 -0.054614
v 0.000000 0.006446 -0.054614
v 0.000000 0.000000 -0.055000
v 2.000000 0.000000 -0.055000
v 2.000000 -0.006446 -0.054614
v 0.000000 -0.012701 -0.053513
v 2.000000 -0.012701 -0.053513
v 0.000000 -0.018798 -0.051683
v 2.000000 -0.018798 -0.051683
v 0.000000 -0.024697 -0.049140
v 2.000000 -0.024697 -0.049140
v 0.000000 -0.030208 -0.045958
v 2.000000 -0.030208 -0.045958
v 0.000000 -0.035360 -0.042121
v 2.000000 -0.035360 -0.042121
v 0.000000 -0.039996 -0.037752
v 2.000000 -0.039996 -0.037752
v 0.000000 -0.044115 -0.032837
v 2.000000 -0.044115 -0.032837
v 0.000000 -0.047631 -0.027500
v 2.000000 -0.047631 -0.027500
v 0.000000 -0.050495 -0.021786
v 2.000000 -0.050495 -0.021786
v 0.000000 -0.052692 -0.015762
v 2.000000 -0.052692 -0.015762
v 0.000000 -0.054158 -0.009562
v 2.000000 -0.054158 -0.009562
v 0.000000 -0.054905 -0.003182
v 2.000000 -0.054905 -0.003182
v 0.000000 -0.054905 0.003182
v 2.000000 -0.054905 0.003182
v 0.000000 -0.054158 0.009562
v 2.000000 -0.054158 0.009562
v 0.000000 -0.052692 0.015762
v 2.000000 -0.052692 0.015762
v 0.000000 -0.050495 0.021786
v 2.000000 -0.050495 0.021786
v 0.000000 -0.047631 0.027500
v 2.000000 -0.047631 0.027500
v 0.000000 -0.044115 0.032837
v 2.000000 -0.044115 0.032837
v 0.000000 -0.039996 0.037752
v 2.000000 -0.039996 0.037752
v 0.000000 -0.035360 0.042121
v 2.000000 -0.035360 0.042121
v 0.000000 -0.030208 0.045958
v 2.000000 -0.030208 0.045958
v 0.000000 -0.024697 0.049140
v 2.000000 -0.024697 0.049140
v 0.000000 -0.018798 0.051683
v 2.000000 -0.018798 0.051683
v 0.000000 -0.012701 0.053513
v 2.000000 -0.012701 0.053513
v 0.000000 -0.006446 0.054614
v 2.000000 -0.006446 0.054614
v 0.000000 -0.000000 0.055000
v 2.000000 -0.000000 0.055000
v 0.000000 -0.000000 0.055000
v 0.000000 0.006446 0.054614
v 2.000000 -0.000000 0.055000
v 2.000000 0.006446 0.054614
v 0.000000 0.012701 0.053513
v 2.000000 0.012701 0.053513
v 0.000000 0.018798 0.051683
v 2.000000 0.018798 0.051683
v 0.000000 0.024697 0.049140
v 2.000000 0.024697 0.049140
v 0.000000 0.030208 0.045958
v 2.000000 0.030208 0.045958
v 0.000000 0.035360 0.042121
v 2.000000 0.035360 0.042121
v 0.000000 0.039996 0.037752
v 2.000000 0.039996 0.037752
v 0.000000 0.044115 0.032837
v 2.000000 0.044115 0.032837
v 0.000000 0.047631 0.027500
v 2.000000 0.047631 0.027500
v 0.000000 0.050495 0.021786
v 2.000000 0.050495 0.021786
v 0.000000 0.052692 0.015762
v 2.000000 0.052692 0.015762
v 0.000000 0.054158 0.009562
v 2.000000 0.054158 0.009562
v 0.000000 0.054905 0.003182
v 2.000000 0.054905 0.003182
v 0.000000 0.054905 -0.003182
v 2.000000 0.054905 -0.003182
v 0.000000 0.054158 -0.009562
v 2.000000 0.054158 -0.009562
v 0.000000 0.052692 -0.015762
v 2.000000 0.052692 -0.015762
v 0.000000 0.050495 -0.021786
v 2.000000 0.050495 -0.021786
v 0.000000 0.047631 -0.027500
v 2.000000 0.047631 -0.027500
v 0.000000 0.044115 -0.032837
v 2.000000 0.044115 -0.032837
v 0.000000 0.039996 -0.037752
v 2.000000 0.039996 -0.037752
v 0.000000 0.035360 -0.042121
v 2.000000 0.035360 -0.042121
v 0.000000 0.030208 -0.045958
v 2.000000 0.030208 -0.045958
v 0.000000 0.024697 -0.049140
v 2.000000 0.024697 -0.049140
v 0.000000 0.018798 -0.051683
v 2.000000 0.018798 -0.051683
v 0.000000 0.012701 -0.053513
v 2.000000 0.012701 -0.053513
vt 0.508751 0.500000
vt 1.000000 0.500000
vt 1.000000 0.461170
vt 0.508690 0.501065
vt 1.000000 0.538830
vt 0.508690 0.498935
vt 1.000000 0.422984
vt 0.508515 0.497902
vt 1.000000 0.384711
vt 0.508224 0.496895
vt 1.000000 0.346088
vt 0.507819 0.495920
vt 1.000000 0.307824
vt 0.507313 0.495010
vt 1.000000 0.269201
vt 0.506703 0.494159
vt 1.000000 0.230896
vt 0.506008 0.493393
vt 1.000000 0.192339
vt 0.505226 0.492712
vt 1.000000 0.153912
vt 0.504376 0.492131
vt 1.000000 0.115485
vt 0.503467 0.491658
vt 1.000000 0.076928
vt 0.502509 0.491295
vt 1.000000 0.038623
vt 0.501522 0.491053
vt 1.000000 0.000000
vt 0.500506 0.490930
vt 0.000000 0.000000
vt 0.499494 0.490930
vt 0.000000 0.038623
vt 0.498478 0.491053
vt 0.000000 0.076928
vt 0.497491 0.491295
vt 0.000000 0.115485
vt 0.496533 0.491658
vt 0.000000 0.153912
vt 0.495624 0.492131
vt 0.000000 0.192339
vt 0.494774 0.492712
vt 0.000000 0.230896
vt 0.493992 0.493393
vt 0.000000 0.269201
vt 0.493297 0.494159
vt 0.000000 0.307824
vt 0.492687 0.495010
vt 0.000000 0.346088
vt 0.492181 0.495920
vt 0.000000 0.384711
vt 0.491776 0.496895
vt 0.000000 0.422984
vt 0.491485 0.497902
vt 0.000000 0.461170
vt 0.491310 0.498935
vt 0.000000 0.500000
vt 0.491249 0.500000
vt 0.000000 0.538830
vt 0.491310 0.501065
vt 0.000000 0.577016
vt 0.491485 0.502098
vt 0.000000 0.615289
vt 0.491776 0.503105
vt 0.000000 0.653912
vt 0.492181 0.504080
vt 0.000000 0.692176
vt 0.492687 0.504990
vt 0.000000 0.730799
vt 0.493297 0.505841
vt 0.000000 0.769104
vt 0.493992 0.506607
vt 0.000000 0.807661
vt 0.494774 0.507288
vt 0.000000 0.846088
vt 0.495624 0.507869
vt 0.000000 0.884515
vt 0.496533 0.508342
vt 0.000000 0.923072
vt 0.497491 0.508705
vt 0.000000 0.961377
vt 0.498478 0.508947
vt 0.000000 1.000000
vt 0.499494 0.509070
vt 1.000000 1.000000
vt 0.500506 0.509070
vt 1.000000 0.961377
vt 0.501522 0.508947
vt 1.000000 0.923072
vt 0.502509 0.508705
vt 1.000000 0.884515
vt 0.503467 0.508342
vt 1.000000 0.846088
vt 0.504376 0.507869
vt 1.000000 0.807661
vt 0.505226 0.507288
vt 1.000000 0.769104
vt 0.506008 0.506607
vt 1.000000 0.730799
vt 0.506703 0.505841
vt 1.000000 0.692176
vt 0.507313 0.504990
vt 1.000000 0.653912
vt 0.507819 0.504080
vt 1.000000 0.615289
vt 0.508224 0.503105
vt 1.000000 0.577016
vt 0.508515 0.502098
vn 0.000000 -0.000000 1.000000
vn 0.000000 0.116400 0.993200
vn 0.000000 -0.116400 0.993200
vn 0.000000 -0.116300 0.993200
vn -0.000000 0.116300 0.993200
vn 0.000000 0.230800 0.973000
vn -0.000000 0.230500 0.973100
vn 0.000000 0.342200 0.939600
vn 0.000000 0.448700 0.893700
vn 0.000000 0.549600 0.835400
vn 0.000000 0.642600 0.766200
vn 0.000000 0.727400 0.686200
vn 0.000000 0.802100 0.597200
vn 0.000000 0.866000 0.500000
vn 0.000000 0.918200 0.396000
vn 0.000000 0.958000 0.286900
vn 0.000000 0.984800 0.173500
vn 0.000000 0.998300 0.058200
vn 0.000000 0.998300 -0.058200
vn 0.000000 0.984800 -0.173500
vn 0.000000 0.958000 -0.286900
vn 0.000000 0.918200 -0.396000
vn 0.000000 0.866000 -0.500000
vn 0.000000 0.802100 -0.597200
vn 0.000000 0.727400 -0.686200
vn 0.000000 0.642600 -0.766200
vn 0.000000 0.549600 -0.835400
vn 0.000000 0.448700 -0.893700
vn 0.000000 0.342200 -0.939600
vn 0.000000 0.230500 -0.973100
vn 0.000000 0.230800 -0.973000
vn 0.000000 0.116300 -0.993200
vn 0.000000 0.116400 -0.993200
vn -0.000000 -0.000000 -1.000000
vn 0.000000 -0.116400 -0.993200
vn -0.000000 -0.116300 -0.993200
vn 0.000000 -0.230800 -0.973000
vn -0.000000 -0.230500 -0.973100
vn 0.000000 -0.342200 -0.939600
vn 0.000000 -0.448700 -0.893700
vn 0.000000 -0.549600 -0.835400
vn 0.000000 -0.642600 -0.766200
vn 0.000000 -0.727400 -0.686200
vn 0.000000 -0.802100 -0.597200
vn 0.000000 -0.866000 -0.500000
vn 0.000000 -0.918200 -0.396000
vn 0.000000 -0.958000 -0.286900
vn 0.000000 -0.984800 -0.173500
vn 0.000000 -0.998300 -0.058200
vn 0.000000 -0.998300 0.058200
vn 0.000000 -0.984800 0.173500
vn 0.000000 -0.958000 0.286900
vn 0.000000 -0.918200 0.396000
vn 0.000000 -0.866000 0.500000
vn 0.000000 -0.802100 0.597200
vn 0.000000 -0.727400 0.686200
vn 0.000000 -0.642600 0.766200
vn 0.000000 -0.549600 0.835400
vn 0.000000 -0.448700 0.893700
vn 0.000000 -0.342200 0.939600
vn 0.000000 -0.230500 0.973100
vn 0.000000 -0.230800 0.973000
usemtl MTL1
s 1
f 1/1/1 2/2/1 3/3/2
f 4/4/3 5/5/4 6/2/1
f 4/4/3 6/2/1 7/1/1
f 8/6/5 3/3/2 9/7/6
f 8/6/5 1/1/1 3/3/2
f 10/8/7 9/7/6 11/9/8
f 8/6/5 9/7/6 10/8/7
f 12/10/8 11/9/8 13/11/9
f 10/8/7 11/9/8 12/10/8
f 14/12/9 13/11/9 15/13/10
f 12/10/8 13/11/9 14/12/9
f 16/14/10 15/13/10 17/15/11
f 14/12/9 15/13/10 16/14/10
f 18/16/11 17/15/11 19/17/12
f 16/14/10 17/15/11 18/16/11
f 20/18/12 19/17/12 21/19/13
f 18/16/11 19/17/12 20/18/12
f 22/20/13 21/19/13 23/21/14
f 20/18/12 21/19/13 22/20/13
f 24/22/14 23/21/14 25/23/15
f 22/20/13 23/21/14 24/22/14
f 26/24/15 25/23/15 27/25/16
f 24/22/14 25/23/15 26/24/15
f 28/26/16 27/25/16 29/27/17
f 26/24/15 27/25/16 28/26/16
f 30/28/17 29/27/17 31/29/18
f 28/26/16 29/27/17 30/28/17
f 32/30/18 31/29/18 33/31/19
f 30/28/17 31/29/18 32/30/18
f 34/32/19 33/31/19 35/33/20
f 32/30/18 33/31/19 34/32/19
f 36/34/20 35/33/20 37/35/21
f 34/32/19 35/33/20 36/34/20
f 38/36/21 37/35/21 39/37/22
f 36/34/20 37/35/21 38/36/21
f 40/38/22 39/37/22 41/39/23
f 38/36/21 39/37/22 40/38/22
f 42/40/23 41/39/23 43/41/24
f 40/38/22 41/39/23 42/40/23
f 44/42/24 43/41/24 45/43/25
f 42/40/23 43/41/24 44/42/24
f 46/44/25 45/43/25 47/45/26
f 44/42/24 45/43/25 46/44/25
f 48/46/26 47/45/26 49/47/27
f 46/44/25 47/45/26 48/46/26
f 50/48/27 49/47/27 51/49/28
f 48/46/26 49/47/27 50/48/27
f 52/50/28 51/49/28 53/51/29
f 50/48/27 51/49/28 52/50/28
f 54/52/29 53/51/29 55/53/30
f 52/50/28 53/51/29 54/52/29
f 56/54/31 55/53/30 57/55/32
f 54/52/29 55/53/30 56/54/31
f 58/56/33 57/55/32 59/57/34
f 56/54/31 57/55/32 58/56/33
f 60/58/34 61/57/34 62/59/35
f 58/56/33 59/57/34 63/58/34
f 64/60/36 62/59/35 65/61/37
f 60/58/34 62/59/35 64/60/36
f 66/62/38 65/61/37 67/63/39
f 64/60/36 65/61/37 66/62/38
f 68/64/39 67/63/39 69/65/40
f 66/62/38 67/63/39 68/64/39
f 70/66/40 69/65/40 71/67/41
f 68/64/39 69/65/40 70/66/40
f 72/68/41 71/67/41 73/69/42
f 70/66/40 71/67/41 72/68/41
f 74/70/42 73/69/42 75/71/43
f 72/68/41 73/69/42 74/70/42
f 76/72/43 75/71/43 77/73/44
f 74/70/42 75/71/43 76/72/43
f 78/74/44 77/73/44 79/75/45
f 76/72/43 77/73/44 78/74/44
f 80/76/45 79/75/45 81/77/46
f 78/74/44 79/75/45 80/76/45
f 82/78/46 81/77/46 83/79/47
f 80/76/45 81/77/46 82/78/46
f 84/80/47 83/79/47 85/81/48
f 82/78/46 83/79/47 84/80/47
f 86/82/48 85/81/48 87/83/49
f 84/80/47 85/81/48 86/82/48
f 88/84/49 87/83/49 89/85/50
f 86/82/48 87/83/49 88/84/49
f 90/86/50 89/85/50 91/87/51
f 88/84/49 89/85/50 90/86/50
f 92/88/51 91/87/51 93/89/52
f 90/86/50 91/87/51 92/88/51
f 94/90/52 93/89/52 95/91/53
f 92/88/51 93/89/52 94/90/52
f 96/92/53 95/91/53 97/93/54
f 94/90/52 95/91/53 96/92/53
f 98/94/54 97/93/54 99/95/55
f 96/92/53 97/93/54 98/94/54
f 100/96/55 99/95/55 101/97/56
f 98/94/54 99/95/55 100/96/55
f 102/98/56 101/97/56 103/99/57
f 100/96/55 101/97/56 102/98/56
f 104/100/57 103/99/57 105/101/58
f 102/98/56 103/99/57 104/100/57
f 106/102/58 105/101/58 107/103/59
f 104/100/57 105/101/58 106/102/58
f 108/104/59 107/103/59 109/105/60
f 106/102/58 107/103/59 108/104/59
f 110/106/60 109/105/60 111/107/61
f 108/104/59 109/105/60 110/106/60
f 112/108/62 111/107/61 5/5/4
f 110/106/60 111/107/61 112/108/62
f 112/108/62 5/5/4 4/4/3
o 3
v 2.000000 -0.044115 -0.032837
v 2.000000 -0.400000 0.400000
v 2.000000 -0.400000 -0.400000
v 2.000000 -0.035360 -0.042121
v 2.000000 0.400000 -0.400000
v 2.000000 -0.039996 -0.037752
v 2.000000 0.035360 0.042121
v 2.000000 0.400000 0.400000
v 2.000000 0.030208 0.045958
v 2.000000 0.024697 0.049140
v 2.000000 0.018798 0.051683
v 2.000000 0.012701 0.053513
v 2.000000 0.006446 0.054614
v 2.000000 -0.000000 0.055000
v 2.000000 -0.006446 0.054614
v 2.000000 -0.012701 0.053513
v 2.000000 -0.018798 0.051683
v 2.000000 -0.024697 0.049140
v 2.000000 -0.030208 0.045958
v 2.000000 -0.035360 0.042121
v 2.000000 -0.039996 0.037752
v 2.000000 -0.044115 0.032837
v 2.000000 -0.047631 0.027500
v 2.000000 -0.050495 0.021786
v 2.000000 -0.052692 0.015762
v 2.000000 -0.054158 0.009562
v 2.000000 -0.054905 0.003182
v 2.000000 -0.054905 -0.003182
v 2.000000 -0.054158 -0.009562
v 2.000000 -0.052692 -0.015762
v 2.000000 -0.050495 -0.021786
v 2.000000 -0.047631 -0.027500
v 2.000000 0.044115 0.032837
v 2.000000 0.039996 0.037752
v 2.000000 0.006446 -0.054614
v 2.000000 0.000000 -0.055000
v 2.000000 -0.006446 -0.054614
v 2.000000 0.012701 -0.053513
v 2.000000 0.018798 -0.051683
v 2.000000 0.024697 -0.049140
v 2.000000 0.030208 -0.045958
v 2.000000 0.035360 -0.042121
v 2.000000 0.039996 -0.037752
v 2.000000 0.044115 -0.032837
v 2.000000 0.047631 -0.027500
v 2.000000 0.050495 -0.021786
v 2.000000 0.052692 -0.015762
v 2.000000 0.054158 -0.009562
v 2.000000 0.054905 -0.003182
v 2.000000 0.054905 0.003182
v 2.000000 0.054158 0.009562
v 2.000000 0.052692 0.015762
v 2.000000 0.050495 0.021786
v 2.000000 0.047631 0.027500
v 2.000000 -0.030208 -0.045958
v 2.000000 -0.024697 -0.049140
v 2.000000 -0.018798 -0.051683
v 2.000000 -0.012701 -0.053513
vt 0.505226 0.492712
vt 0.437167 0.435998
vt 0.562833 0.435998
vt 0.506703 0.494159
vt 0.562833 0.564002
vt 0.506008 0.493393
vt 0.493297 0.505841
vt 0.437167 0.564002
vt 0.492687 0.504990
vt 0.492181 0.504080
vt 0.491776 0.503105
vt 0.491485 0.502098
vt 0.491310 0.501065
vt 0.491249 0.500000
vt 0.491310 0.498935
vt 0.491485 0.497902
vt 0.491776 0.496895
vt 0.492181 0.495920
vt 0.492687 0.495010
vt 0.493297 0.494159
vt 0.493992 0.493393
vt 0.494774 0.492712
vt 0.495624 0.492131
vt 0.496533 0.491658
vt 0.497491 0.491295
vt 0.498478 0.491053
vt 0.499494 0.490930
vt 0.500506 0.490930
vt 0.501522 0.491053
vt 0.502509 0.491295
vt 0.503467 0.491658
vt 0.504376 0.492131
vt 0.494774 0.507288
vt 0.493992 0.506607
vt 0.508690 0.501065
vt 0.508751 0.500000
vt 0.508690 0.498935
vt 0.508515 0.502098
vt 0.508224 0.503105
vt 0.507819 0.504080
vt 0.507313 0.504990
vt 0.506703 0.505841
vt 0.506008 0.506607
vt 0.505226 0.507288
vt 0.504376 0.507869
vt 0.503467 0.508342
vt 0.502509 0.508705
vt 0.501522 0.508947
vt 0.500506 0.509070
vt 0.499494 0.509070
vt 0.498478 0.508947
vt 0.497491 0.508705
vt 0.496533 0.508342
vt 0.495624 0.507869
vt 0.507313 0.495010
vt 0.507819 0.495920
vt 0.508224 0.496895
vt 0.508515 0.497902
vn 1.000000 0.000000 0.000000
vn 1.000000 0.000100 0.000000
vn 1.000000 -0.000100 0.000000
usemtl MTL0
s 1
f 113/109/63 114/110/63 115/111/63
f 116/112/63 115/111/63 117/113/63
f 118/114/63 113/109/63 115/111/63
f 116/112/63 118/114/63 115/111/63
f 119/115/63 120/116/63 114/110/63
f 121/117/63 119/115/63 114/110/63
f 122/118/63 121/117/63 114/110/63
f 123/119/63 122/118/63 114/110/63
f 124/120/64 123/119/63 114/110/63
f 125/121/65 124/120/64 114/110/63
f 126/122/63 125/121/65 114/110/63
f 127/123/63 126/122/63 114/110/63
f 128/124/63 127/123/63 114/110/63
f 129/125/63 128/124/63 114/110/63
f 130/126/63 129/125/63 114/110/63
f 131/127/63 130/126/63 114/110/63
f 132/128/63 131/127/63 114/110/63
f 133/129/63 132/128/63 114/110/63
f 134/130/63 133/129/63 114/110/63
f 135/131/63 134/130/63 114/110/63
f 136/132/63 135/131/63 114/110/63
f 137/133/63 136/132/63 114/110/63
f 138/134/63 137/133/63 114/110/63
f 139/135/63 138/134/63 114/110/63
f 140/136/63 139/135/63 114/110/63
f 141/137/63 140/136/63 114/110/63
f 142/138/63 141/137/63 114/110/63
f 143/139/63 142/138/63 114/110/63
f 144/140/63 143/139/63 114/110/63
f 113/109/63 144/140/63 114/110/63
f 145/141/63 117/113/63 120/116/63
f 146/142/63 145/141/63 120/116/63
f 119/115/63 146/142/63 120/116/63
f 147/143/63 148/144/63 117/113/63
f 149/145/64 117/113/63 148/144/63
f 150/146/63 147/143/63 117/113/63
f 151/147/63 150/146/63 117/113/63
f 152/148/63 151/147/63 117/113/63
f 153/149/63 152/148/63 117/113/63
f 154/150/63 153/149/63 117/113/63
f 155/151/63 154/150/63 117/113/63
f 156/152/63 155/151/63 117/113/63
f 157/153/63 156/152/63 117/113/63
f 158/154/63 157/153/63 117/113/63
f 159/155/63 158/154/63 117/113/63
f 160/156/63 159/155/63 117/113/63
f 161/157/63 160/156/63 117/113/63
f 162/158/63 161/157/63 117/113/63
f 163/159/63 162/158/63 117/113/63
f 164/160/63 163/159/63 117/113/63
f 165/161/63 164/160/63 117/113/63
f 166/162/63 165/161/63 117/113/63
f 145/141/63 166/162/63 117/113/63
f 167/163/63 116/112/63 117/113/63
f 168/164/63 167/163/63 117/113/63
f 169/165/63 168/164/63 117/113/63
f 170/166/65 169/165/63 117/113/63
f 149/145/64 170/166/65 117/113/63
o 1
v 0.000000 0.035360 -0.042121
v 0.000000 0.400000 -0.400000
v 0.000000 -0.400000 -0.400000
v 2.000000 0.400000 -0.400000
v 0.000000 -0.400000 -0.400000
v 0.000000 0.400000 -0.400000
v 0.000000 -0.044115 0.032837
v 0.000000 -0.400000 0.400000
v 2.000000 -0.400000 -0.400000
v 0.000000 -0.400000 0.400000
v 0.000000 -0.400000 -0.400000
v 0.000000 -0.006446 -0.054614
v 0.000000 0.000000 -0.055000
v 0.000000 0.006446 -0.054614
v 0.000000 -0.012701 -0.053513
v 0.000000 -0.018798 -0.051683
v 0.000000 -0.024697 -0.049140
v 0.000000 -0.030208 -0.045958
v 0.000000 -0.035360 -0.042121
v 0.000000 -0.039996 -0.037752
v 0.000000 -0.044115 -0.032837
v 0.000000 -0.047631 -0.027500
v 0.000000 -0.050495 -0.021786
v 0.000000 -0.052692 -0.015762
v 0.000000 -0.054158 -0.009562
v 0.000000 -0.054905 -0.003182
v 0.000000 -0.054905 0.003182
v 0.000000 -0.054158 0.009562
v 0.000000 -0.052692 0.015762
v 0.000000 -0.050495 0.021786
v 0.000000 -0.047631 0.027500
v 0.000000 0.030208 -0.045958
v 0.000000 0.024697 -0.049140
v 0.000000 0.018798 -0.051683
v 0.000000 0.012701 -0.053513
v 2.000000 -0.400000 -0.400000
v 0.000000 0.044115 -0.032837
v 0.000000 0.400000 0.400000
v 2.000000 0.400000 0.400000
v 0.000000 0.400000 -0.400000
v 0.000000 0.400000 0.400000
v 0.000000 0.039996 -0.037752
v 2.000000 0.400000 -0.400000
v 0.000000 -0.035360 0.042121
v 2.000000 -0.400000 0.400000
v 0.000000 0.400000 0.400000
v 0.000000 -0.400000 0.400000
v 0.000000 -0.030208 0.045958
v 0.000000 -0.024697 0.049140
v 0.000000 -0.018798 0.051683
v 0.000000 -0.012701 0.053513
v 0.000000 -0.006446 0.054614
v 0.000000 -0.000000 0.055000
v 0.000000 0.006446 0.054614
v 0.000000 0.012701 0.053513
v 0.000000 0.018798 0.051683
v 0.000000 0.024697 0.049140
v 0.000000 0.030208 0.045958
v 0.000000 0.035360 0.042121
v 0.000000 0.039996 0.037752
v 0.000000 0.044115 0.032837
v 0.000000 0.047631 0.027500
v 0.000000 0.050495 0.021786
v 0.000000 0.052692 0.015762
v 0.000000 0.054158 0.009562
v 0.000000 0.054905 0.003182
v 0.000000 0.054905 -0.003182
v 0.000000 0.054158 -0.009562
v 0.000000 0.052692 -0.015762
v 0.000000 0.050495 -0.021786
v 0.000000 0.047631 -0.027500
v 2.000000 0.400000 0.400000
v 0.000000 -0.039996 0.037752
v 2.000000 -0.400000 0.400000
vt 1.000000 0.730799
vt 1.000000 0.759566
vt 1.000000 0.240434
vt 0.562833 0.564002
vt 0.000000 0.192339
vt 0.000000 0.240434
vt 0.562833 0.435998
vt 1.000000 0.461170
vt 1.000000 0.500000
vt 1.000000 0.538830
vt 1.000000 0.422984
vt 1.000000 0.384711
vt 1.000000 0.346088
vt 1.000000 0.307824
vt 1.000000 0.269201
vt 1.000000 0.230896
vt 1.000000 0.192339
vt 1.000000 0.153912
vt 1.000000 0.115485
vt 1.000000 0.076928
vt 1.000000 0.038623
vt 1.000000 0.000000
vt 0.000000 0.000000
vt 0.000000 0.038623
vt 0.000000 0.076928
vt 0.000000 0.115485
vt 0.000000 0.153912
vt 1.000000 0.692176
vt 1.000000 0.653912
vt 1.000000 0.615289
vt 1.000000 0.577016
vt 1.000000 0.807661
vt 0.000000 0.759566
vt 0.437167 0.564002
vt 1.000000 0.769104
vt 0.000000 0.269201
vt 0.437167 0.435998
vt 0.000000 0.307824
vt 0.000000 0.346088
vt 0.000000 0.384711
vt 0.000000 0.422984
vt 0.000000 0.461170
vt 0.000000 0.500000
vt 0.000000 0.538830
vt 0.000000 0.577016
vt 0.000000 0.615289
vt 0.000000 0.653912
vt 0.000000 0.692176
vt 0.000000 0.730799
vt 0.000000 0.769104
vt 0.000000 0.807661
vt 0.000000 0.846088
vt 0.000000 0.884515
vt 0.000000 0.923072
vt 0.000000 0.961377
vt 0.000000 1.000000
vt 1.000000 1.000000
vt 1.000000 0.961377
vt 1.000000 0.923072
vt 1.000000 0.884515
vt 1.000000 0.846088
vt 0.000000 0.230896
vn -1.000000 0.000000 0.000000
vn 0.000000 0.000000 -1.000000
vn 0.000000 -1.000000 -0.000000
vn 0.000000 1.000000 0.000000
vn 0.000000 -0.000000 1.000000
usemtl MTL0
s 1
f 171/167/66 172/168/66 173/169/66
f 174/170/67 175/169/67 176/168/67
f 177/171/66 173/169/66 178/172/66
f 179/173/68 180/172/68 181/169/68
f 182/174/66 183/175/66 173/169/66
f 184/176/66 173/169/66 183/175/66
f 185/177/66 182/174/66 173/169/66
f 186/178/66 185/177/66 173/169/66
f 187/179/66 186/178/66 173/169/66
f 188/180/66 187/179/66 173/169/66
f 189/181/66 188/180/66 173/169/66
f 190/182/66 189/181/66 173/169/66
f 191/183/66 190/182/66 173/169/66
f 192/184/66 191/183/66 173/169/66
f 193/185/66 192/184/66 173/169/66
f 194/186/66 193/185/66 173/169/66
f 195/187/66 194/186/66 173/169/66
f 196/188/66 195/187/66 173/169/66
f 197/189/66 196/188/66 173/169/66
f 198/190/66 197/189/66 173/169/66
f 199/191/66 198/190/66 173/169/66
f 200/192/66 199/191/66 173/169/66
f 201/193/66 200/192/66 173/169/66
f 177/171/66 201/193/66 173/169/66
f 202/194/66 171/167/66 173/169/66
f 203/195/66 202/194/66 173/169/66
f 204/196/66 203/195/66 173/169/66
f 205/197/66 204/196/66 173/169/66
f 184/176/66 205/197/66 173/169/66
f 174/170/67 206/173/67 175/169/67
f 207/198/66 208/199/66 172/168/66
f 209/200/69 210/168/69 211/199/69
f 212/201/66 207/198/66 172/168/66
f 171/167/66 212/201/66 172/168/66
f 213/170/69 210/168/69 209/200/69
f 214/202/66 178/172/66 208/199/66
f 215/203/70 216/199/70 217/172/70
f 218/204/66 214/202/66 208/199/66
f 219/205/66 218/204/66 208/199/66
f 220/206/66 219/205/66 208/199/66
f 221/207/66 220/206/66 208/199/66
f 222/208/66 221/207/66 208/199/66
f 223/209/66 222/208/66 208/199/66
f 224/210/66 223/209/66 208/199/66
f 225/211/66 224/210/66 208/199/66
f 226/212/66 225/211/66 208/199/66
f 227/213/66 226/212/66 208/199/66
f 228/214/66 227/213/66 208/199/66
f 229/215/66 228/214/66 208/199/66
f 230/216/66 229/215/66 208/199/66
f 231/217/66 230/216/66 208/199/66
f 232/218/66 231/217/66 208/199/66
f 233/219/66 232/218/66 208/199/66
f 234/220/66 233/219/66 208/199/66
f 235/221/66 234/220/66 208/199/66
f 236/222/66 235/221/66 208/199/66
f 237/223/66 236/222/66 208/199/66
f 238/224/66 237/223/66 208/199/66
f 239/225/66 238/224/66 208/199/66
f 240/226/66 239/225/66 208/199/66
f 241/227/66 240/226/66 208/199/66
f 207/198/66 241/227/66 208/199/66
f 242/200/70 216/199/70 215/203/70
f 243/228/66 177/171/66 178/172/66
f 214/202/66 243/228/66 178/172/66
f 244/203/68 180/172/68 179/173/68
